<svg width="16" height="16" viewBox="0 0 16 16" fill="none" xmlns="http://www.w3.org/2000/svg">
<rect width="16" height="16" rx="5" fill="#002B53"/>
<path d="M4.544 5.992C4.652 5.992 4.746 6.004 4.826 6.028C4.91 6.052 4.956 6.088 4.964 6.136C4.964 6.236 4.884 6.622 4.724 7.294C4.564 7.966 4.416 8.562 4.28 9.082C4.204 9.37 4.056 9.608 3.836 9.796C3.62 9.98 3.334 10.072 2.978 10.072C2.686 10.072 2.454 10.018 2.282 9.91C2.114 9.798 1.998 9.666 1.934 9.514C1.866 9.362 1.832 9.212 1.832 9.064C1.832 8.832 1.862 8.664 1.922 8.56C1.978 8.452 2.078 8.398 2.222 8.398C2.362 8.398 2.472 8.418 2.552 8.458C2.632 8.494 2.672 8.542 2.672 8.602C2.672 8.642 2.64 8.706 2.576 8.794C2.508 8.886 2.474 8.952 2.474 8.992C2.478 9.18 2.52 9.31 2.6 9.382C2.684 9.454 2.8 9.49 2.948 9.49C3.052 9.49 3.152 9.448 3.248 9.364C3.348 9.28 3.428 9.126 3.488 8.902L4.07 6.652C3.81 6.696 3.596 6.736 3.428 6.772C3.348 6.744 3.286 6.702 3.242 6.646C3.202 6.586 3.182 6.516 3.182 6.436C3.182 6.32 3.26 6.228 3.416 6.16C3.732 6.096 3.962 6.054 4.106 6.034C4.25 6.01 4.396 5.996 4.544 5.992ZM7.4345 8.668C6.9105 8.756 6.4925 8.836 6.1805 8.908C6.0845 9.06 6.0225 9.162 5.9945 9.214C5.9105 9.362 5.8345 9.486 5.7665 9.586C5.7025 9.682 5.6325 9.768 5.5565 9.844C5.4725 9.928 5.4025 9.988 5.3465 10.024C5.2945 10.06 5.2325 10.078 5.1605 10.078C5.0405 10.078 4.9345 10.052 4.8425 10C4.7545 9.944 4.7105 9.888 4.7105 9.832C4.7185 9.824 4.7625 9.736 4.8425 9.568C4.9225 9.396 5.0705 9.182 5.2865 8.926C5.2865 8.894 5.2765 8.854 5.2565 8.806C5.2365 8.758 5.2265 8.73 5.2265 8.722C5.2265 8.606 5.4085 8.466 5.7725 8.302C5.9765 7.998 6.1905 7.698 6.4145 7.402C6.6425 7.106 6.9205 6.756 7.2485 6.352C7.3285 6.252 7.4305 6.17 7.5545 6.106C7.6785 6.042 7.8025 6.01 7.9265 6.01C8.0545 6.01 8.1505 6.022 8.2145 6.046C8.2785 6.07 8.3185 6.102 8.3345 6.142C8.3545 6.182 8.3645 6.238 8.3645 6.31C8.3485 6.43 8.3385 6.52 8.3345 6.58C8.2745 7.064 8.2285 7.48 8.1965 7.828C8.1685 8.172 8.1545 8.516 8.1545 8.86C8.1545 9.176 8.1685 9.466 8.1965 9.73C8.1845 9.826 8.1425 9.914 8.0705 9.994C7.9985 10.07 7.9145 10.108 7.8185 10.108C7.6345 10.108 7.5125 10.062 7.4525 9.97C7.3965 9.878 7.3685 9.722 7.3685 9.502C7.3685 9.342 7.3905 9.064 7.4345 8.668ZM6.6545 8.218C6.7265 8.202 6.8365 8.184 6.9845 8.164L7.4645 8.092C7.5005 7.536 7.5425 7.136 7.5905 6.892C7.4345 7.076 7.1225 7.518 6.6545 8.218ZM13.412 5.992C13.56 6.02 13.656 6.044 13.7 6.064C13.748 6.08 13.78 6.106 13.796 6.142C13.712 6.466 13.602 6.926 13.466 7.522C13.33 8.114 13.238 8.512 13.19 8.716C13.102 9.124 13.02 9.486 12.944 9.802C12.888 10.022 12.8 10.132 12.68 10.132C12.312 10.132 12.128 10.046 12.128 9.874C12.128 9.926 12.174 9.738 12.266 9.31C12.358 8.882 12.414 8.622 12.434 8.53L12.566 7.906L11.234 9.85C11.17 9.93 11.076 9.97 10.952 9.97C10.848 9.97 10.75 9.944 10.658 9.892C10.57 9.84 10.532 9.788 10.544 9.736C10.516 9.6 10.464 9.342 10.388 8.962C10.312 8.578 10.234 8.178 10.154 7.762L9.65 9.784C9.622 9.9 9.578 9.978 9.518 10.018C9.462 10.058 9.354 10.078 9.194 10.078C9.07 10.078 8.978 10.056 8.918 10.012C8.862 9.972 8.834 9.902 8.834 9.802C8.834 9.758 8.84 9.716 8.852 9.676L9.674 6.43C9.718 6.254 9.764 6.138 9.812 6.082C9.864 6.022 9.956 5.992 10.088 5.992C10.196 5.992 10.292 6.004 10.376 6.028C10.46 6.052 10.504 6.088 10.508 6.136V6.148L11.06 9.13L12.962 6.25C13.002 6.162 13.046 6.104 13.094 6.076C13.146 6.048 13.204 6.03 13.268 6.022C13.332 6.01 13.38 6 13.412 5.992Z" fill="#F5F5F5"/>
</svg>
